<svg width="155" height="46" viewBox="0 0 155 46" fill="none" xmlns="http://www.w3.org/2000/svg">
<path d="M61.036 16.436L57.526 29H54.556L52.198 20.054L49.732 29L46.78 29.018L43.396 16.436H46.096L48.31 26.192L50.866 16.436H53.674L56.086 26.138L58.318 16.436H61.036ZM63.9595 17.84C63.5155 17.84 63.1435 17.702 62.8435 17.426C62.5555 17.138 62.4115 16.784 62.4115 16.364C62.4115 15.944 62.5555 15.596 62.8435 15.32C63.1435 15.032 63.5155 14.888 63.9595 14.888C64.4035 14.888 64.7695 15.032 65.0575 15.32C65.3575 15.596 65.5075 15.944 65.5075 16.364C65.5075 16.784 65.3575 17.138 65.0575 17.426C64.7695 17.702 64.4035 17.84 63.9595 17.84ZM65.2015 19.028V29H62.6815V19.028H65.2015ZM71.5072 29.162C70.6912 29.162 69.9592 29.018 69.3112 28.73C68.6632 28.43 68.1472 28.028 67.7632 27.524C67.3912 27.02 67.1872 26.462 67.1512 25.85H69.6892C69.7372 26.234 69.9232 26.552 70.2472 26.804C70.5832 27.056 70.9972 27.182 71.4892 27.182C71.9692 27.182 72.3412 27.086 72.6052 26.894C72.8812 26.702 73.0192 26.456 73.0192 26.156C73.0192 25.832 72.8512 25.592 72.5152 25.436C72.1912 25.268 71.6692 25.088 70.9492 24.896C70.2052 24.716 69.5932 24.53 69.1132 24.338C68.6452 24.146 68.2372 23.852 67.8892 23.456C67.5532 23.06 67.3852 22.526 67.3852 21.854C67.3852 21.302 67.5412 20.798 67.8532 20.342C68.1772 19.886 68.6332 19.526 69.2212 19.262C69.8212 18.998 70.5232 18.866 71.3272 18.866C72.5152 18.866 73.4632 19.166 74.1712 19.766C74.8792 20.354 75.2692 21.152 75.3412 22.16H72.9292C72.8932 21.764 72.7252 21.452 72.4252 21.224C72.1372 20.984 71.7472 20.864 71.2552 20.864C70.7992 20.864 70.4452 20.948 70.1932 21.116C69.9532 21.284 69.8332 21.518 69.8332 21.818C69.8332 22.154 70.0012 22.412 70.3372 22.592C70.6732 22.76 71.1952 22.934 71.9032 23.114C72.6232 23.294 73.2172 23.48 73.6852 23.672C74.1532 23.864 74.5552 24.164 74.8912 24.572C75.2392 24.968 75.4192 25.496 75.4312 26.156C75.4312 26.732 75.2692 27.248 74.9452 27.704C74.6332 28.16 74.1772 28.52 73.5772 28.784C72.9892 29.036 72.2992 29.162 71.5072 29.162ZM76.8518 23.978C76.8518 22.97 77.0498 22.076 77.4458 21.296C77.8538 20.516 78.3998 19.916 79.0838 19.496C79.7798 19.076 80.5538 18.866 81.4058 18.866C82.1498 18.866 82.7978 19.016 83.3498 19.316C83.9138 19.616 84.3638 19.994 84.6998 20.45V19.028H87.2378V29H84.6998V27.542C84.3758 28.01 83.9258 28.4 83.3498 28.712C82.7858 29.012 82.1318 29.162 81.3878 29.162C80.5478 29.162 79.7798 28.946 79.0838 28.514C78.3998 28.082 77.8538 27.476 77.4458 26.696C77.0498 25.904 76.8518 24.998 76.8518 23.978ZM84.6998 24.014C84.6998 23.402 84.5798 22.88 84.3398 22.448C84.0998 22.004 83.7758 21.668 83.3678 21.44C82.9598 21.2 82.5218 21.08 82.0538 21.08C81.5858 21.08 81.1538 21.194 80.7578 21.422C80.3618 21.65 80.0378 21.986 79.7858 22.43C79.5458 22.862 79.4258 23.378 79.4258 23.978C79.4258 24.578 79.5458 25.106 79.7858 25.562C80.0378 26.006 80.3618 26.348 80.7578 26.588C81.1658 26.828 81.5978 26.948 82.0538 26.948C82.5218 26.948 82.9598 26.834 83.3678 26.606C83.7758 26.366 84.0998 26.03 84.3398 25.598C84.5798 25.154 84.6998 24.626 84.6998 24.014ZM92.633 21.098V25.922C92.633 26.258 92.711 26.504 92.867 26.66C93.035 26.804 93.311 26.876 93.695 26.876H94.865V29H93.281C91.157 29 90.095 27.968 90.095 25.904V21.098H88.907V19.028H90.095V16.562H92.633V19.028H94.865V21.098H92.633ZM96.0295 23.978C96.0295 22.97 96.2275 22.076 96.6235 21.296C97.0315 20.516 97.5775 19.916 98.2615 19.496C98.9575 19.076 99.7315 18.866 100.584 18.866C101.328 18.866 101.976 19.016 102.528 19.316C103.092 19.616 103.542 19.994 103.878 20.45V19.028H106.416V29H103.878V27.542C103.554 28.01 103.104 28.4 102.528 28.712C101.964 29.012 101.31 29.162 100.566 29.162C99.7255 29.162 98.9575 28.946 98.2615 28.514C97.5775 28.082 97.0315 27.476 96.6235 26.696C96.2275 25.904 96.0295 24.998 96.0295 23.978ZM103.878 24.014C103.878 23.402 103.758 22.88 103.518 22.448C103.278 22.004 102.954 21.668 102.546 21.44C102.138 21.2 101.7 21.08 101.232 21.08C100.764 21.08 100.332 21.194 99.9355 21.422C99.5395 21.65 99.2155 21.986 98.9635 22.43C98.7235 22.862 98.6035 23.378 98.6035 23.978C98.6035 24.578 98.7235 25.106 98.9635 25.562C99.2155 26.006 99.5395 26.348 99.9355 26.588C100.344 26.828 100.776 26.948 101.232 26.948C101.7 26.948 102.138 26.834 102.546 26.606C102.954 26.366 103.278 26.03 103.518 25.598C103.758 25.154 103.878 24.626 103.878 24.014ZM110.155 17.84C109.711 17.84 109.339 17.702 109.039 17.426C108.751 17.138 108.607 16.784 108.607 16.364C108.607 15.944 108.751 15.596 109.039 15.32C109.339 15.032 109.711 14.888 110.155 14.888C110.599 14.888 110.965 15.032 111.253 15.32C111.553 15.596 111.703 15.944 111.703 16.364C111.703 16.784 111.553 17.138 111.253 17.426C110.965 17.702 110.599 17.84 110.155 17.84ZM111.397 19.028V29H108.877V19.028H111.397ZM119.413 18.884C120.601 18.884 121.561 19.262 122.293 20.018C123.025 20.762 123.391 21.806 123.391 23.15V29H120.871V23.492C120.871 22.7 120.673 22.094 120.277 21.674C119.881 21.242 119.341 21.026 118.657 21.026C117.961 21.026 117.409 21.242 117.001 21.674C116.605 22.094 116.407 22.7 116.407 23.492V29H113.887V19.028H116.407V20.27C116.743 19.838 117.169 19.502 117.685 19.262C118.213 19.01 118.789 18.884 119.413 18.884ZM125.139 23.978C125.139 22.97 125.337 22.076 125.733 21.296C126.141 20.516 126.687 19.916 127.371 19.496C128.067 19.076 128.841 18.866 129.693 18.866C130.437 18.866 131.085 19.016 131.637 19.316C132.201 19.616 132.651 19.994 132.987 20.45V19.028H135.525V29H132.987V27.542C132.663 28.01 132.213 28.4 131.637 28.712C131.073 29.012 130.419 29.162 129.675 29.162C128.835 29.162 128.067 28.946 127.371 28.514C126.687 28.082 126.141 27.476 125.733 26.696C125.337 25.904 125.139 24.998 125.139 23.978ZM132.987 24.014C132.987 23.402 132.867 22.88 132.627 22.448C132.387 22.004 132.063 21.668 131.655 21.44C131.247 21.2 130.809 21.08 130.341 21.08C129.873 21.08 129.441 21.194 129.045 21.422C128.649 21.65 128.325 21.986 128.073 22.43C127.833 22.862 127.713 23.378 127.713 23.978C127.713 24.578 127.833 25.106 128.073 25.562C128.325 26.006 128.649 26.348 129.045 26.588C129.453 26.828 129.885 26.948 130.341 26.948C130.809 26.948 131.247 26.834 131.655 26.606C132.063 26.366 132.387 26.03 132.627 25.598C132.867 25.154 132.987 24.626 132.987 24.014ZM139.264 17.84C138.808 17.84 138.43 17.702 138.13 17.426C137.842 17.138 137.698 16.784 137.698 16.364C137.698 15.944 137.842 15.596 138.13 15.32C138.43 15.032 138.808 14.888 139.264 14.888C139.708 14.888 140.074 15.032 140.362 15.32C140.65 15.596 140.794 15.944 140.794 16.364C140.794 16.784 140.65 17.138 140.362 17.426C140.074 17.702 139.708 17.84 139.264 17.84ZM140.506 30.638C140.506 31.742 140.23 32.534 139.678 33.014C139.138 33.506 138.358 33.752 137.338 33.752H136.222V31.61H136.942C137.326 31.61 137.596 31.532 137.752 31.376C137.908 31.232 137.986 30.992 137.986 30.656V19.028H140.506V30.638ZM142.348 23.978C142.348 22.97 142.546 22.076 142.942 21.296C143.35 20.516 143.896 19.916 144.58 19.496C145.276 19.076 146.05 18.866 146.902 18.866C147.646 18.866 148.294 19.016 148.846 19.316C149.41 19.616 149.86 19.994 150.196 20.45V19.028H152.734V29H150.196V27.542C149.872 28.01 149.422 28.4 148.846 28.712C148.282 29.012 147.628 29.162 146.884 29.162C146.044 29.162 145.276 28.946 144.58 28.514C143.896 28.082 143.35 27.476 142.942 26.696C142.546 25.904 142.348 24.998 142.348 23.978ZM150.196 24.014C150.196 23.402 150.076 22.88 149.836 22.448C149.596 22.004 149.272 21.668 148.864 21.44C148.456 21.2 148.018 21.08 147.55 21.08C147.082 21.08 146.65 21.194 146.254 21.422C145.858 21.65 145.534 21.986 145.282 22.43C145.042 22.862 144.922 23.378 144.922 23.978C144.922 24.578 145.042 25.106 145.282 25.562C145.534 26.006 145.858 26.348 146.254 26.588C146.662 26.828 147.094 26.948 147.55 26.948C148.018 26.948 148.456 26.834 148.864 26.606C149.272 26.366 149.596 26.03 149.836 25.598C150.076 25.154 150.196 24.626 150.196 24.014Z" fill="black"/>
<path d="M17.4997 6C7.83319 6 0 13.8332 0 23.4997C0 33.1662 7.83319 40.9993 17.4997 40.9993C27.1662 40.9993 34.9993 33.1662 34.9993 23.4997C35.0827 13.8332 27.1662 6 17.4997 6ZM17.1663 32.8328C16.9164 33.3328 16.583 33.7495 16.1664 33.9995C16.1664 33.4995 15.9997 33.0828 15.6664 32.6662C15.4997 32.4162 15.1664 32.0828 14.6664 31.7495L14.4164 31.5829C13.8331 31.0829 13.3331 30.6662 13.1664 30.3329C12.7498 29.8329 12.4998 29.2496 12.4998 28.6662C12.4164 27.4996 12.7498 26.333 13.3331 25.083C13.4997 25.583 13.7497 26.1663 14.0831 26.583C14.3331 26.9163 14.6664 27.3329 15.1664 27.8329L15.6664 28.3329C16.2497 28.9162 16.6664 29.4162 16.9164 29.6662C17.333 30.0829 17.4997 30.5829 17.4997 31.2495C17.4997 31.8329 17.4163 32.3328 17.1663 32.8328ZM17.583 27.9163C17.4163 27.7496 17.2497 27.6663 17.083 27.4996L16.833 27.3329C15.9997 26.9163 15.2497 26.333 14.7497 25.7496C14.2497 25.2496 13.8331 24.6663 13.5831 24.083C13.3331 23.583 13.1664 22.9997 13.1664 22.4164C13.0831 21.9164 13.1664 21.4164 13.2498 20.8331C13.3331 20.4164 13.4997 19.9997 13.7497 19.4997C13.9164 19.1664 14.0831 18.7498 14.2497 18.4164C14.4164 18.1664 14.5831 17.9164 14.7497 17.7498L14.9997 17.4998C15.1664 17.2498 15.333 17.0831 15.4164 16.9165C15.833 16.2498 16.2497 15.6665 16.4164 15.0832C16.6664 14.4165 16.6664 13.6665 16.583 12.9165C17.583 13.7499 18.1663 14.6665 18.333 15.7498C18.583 16.8331 18.4163 17.9164 17.833 18.9998C17.6663 19.1664 17.4997 19.4997 17.333 19.8331C16.9164 20.4997 16.583 21.0831 16.4997 21.4164C16.083 22.583 16.1664 23.833 16.9164 25.2496L18.1663 28.4996C18.083 28.4162 17.9163 28.1663 17.583 27.9163ZM21.9163 30.1662C21.5829 30.8329 21.2496 31.3329 20.7496 31.8329C20.333 32.2495 19.7496 32.6662 19.083 32.9995L19.333 32.4995C19.9163 31.3329 20.1663 30.1662 19.9996 28.9996C19.833 27.9163 19.4163 26.8329 18.583 25.6663C17.9163 24.6663 17.6663 23.583 17.9997 22.333C18.1663 21.4997 18.6663 20.6664 19.4163 19.8331C19.333 20.5831 19.4996 21.333 19.833 21.9997C19.9996 22.4164 20.4163 23.083 20.9163 23.833L20.9996 23.9163C21.4996 24.6663 21.9163 25.333 22.1663 25.833C22.4996 26.4996 22.5829 27.0829 22.5829 27.7496C22.4996 28.4162 22.3329 29.2496 21.9163 30.1662Z" fill="#2ED06E"/>
</svg>
